<svg width="12" height="13" viewBox="0 0 12 13" fill="none" xmlns="http://www.w3.org/2000/svg">
<g id="ChevronRight">
<path id="Vector" fill-rule="evenodd" clip-rule="evenodd" d="M3.4845 1.7345C3.51933 1.69958 3.56071 1.67187 3.60627 1.65296C3.65183 1.63406 3.70067 1.62433 3.75 1.62433C3.79932 1.62433 3.84817 1.63406 3.89372 1.65296C3.93928 1.67187 3.98066 1.69958 4.0155 1.7345L8.5155 6.2345C8.55042 6.26933 8.57813 6.31072 8.59703 6.35627C8.61594 6.40183 8.62567 6.45067 8.62567 6.5C8.62567 6.54932 8.61594 6.59817 8.59703 6.64372C8.57813 6.68928 8.55042 6.73066 8.5155 6.7655L4.0155 11.2655C3.94508 11.3359 3.84958 11.3755 3.75 11.3755C3.65042 11.3755 3.55491 11.3359 3.4845 11.2655C3.41408 11.1951 3.37452 11.0996 3.37452 11C3.37452 10.9004 3.41408 10.8049 3.4845 10.7345L7.71975 6.5L3.4845 2.2655C3.44958 2.23066 3.42187 2.18928 3.40296 2.14372C3.38406 2.09817 3.37433 2.04932 3.37433 2C3.37433 1.95067 3.38406 1.90183 3.40296 1.85627C3.42187 1.81071 3.44958 1.76933 3.4845 1.7345Z" fill="#7E9549"/>
</g>
</svg>
