<svg width="16" height="16" viewBox="0 0 16 16" fill="none" xmlns="http://www.w3.org/2000/svg">
<g id="ChevronDown">
<path id="Vector" fill-rule="evenodd" clip-rule="evenodd" d="M1.64604 4.64598C1.69249 4.59941 1.74766 4.56247 1.80841 4.53727C1.86915 4.51206 1.93427 4.49908 2.00004 4.49908C2.06581 4.49908 2.13093 4.51206 2.19167 4.53727C2.25242 4.56247 2.30759 4.59941 2.35404 4.64598L8.00004 10.293L13.646 4.64598C13.6925 4.59949 13.7477 4.56261 13.8085 4.53745C13.8692 4.5123 13.9343 4.49935 14 4.49935C14.0658 4.49935 14.1309 4.5123 14.1916 4.53745C14.2524 4.56261 14.3076 4.59949 14.354 4.64598C14.4005 4.69247 14.4374 4.74766 14.4626 4.80839C14.4877 4.86913 14.5007 4.93423 14.5007 4.99998C14.5007 5.06572 14.4877 5.13082 14.4626 5.19156C14.4374 5.2523 14.4005 5.30749 14.354 5.35398L8.35404 11.354C8.30759 11.4005 8.25242 11.4375 8.19167 11.4627C8.13093 11.4879 8.06581 11.5009 8.00004 11.5009C7.93427 11.5009 7.86915 11.4879 7.80841 11.4627C7.74766 11.4375 7.69248 11.4005 7.64604 11.354L1.64604 5.35398C1.59948 5.30753 1.56253 5.25236 1.53733 5.19161C1.51212 5.13087 1.49915 5.06575 1.49915 4.99998C1.49915 4.93421 1.51212 4.86909 1.53733 4.80834C1.56253 4.7476 1.59948 4.69242 1.64604 4.64598Z" fill="black"/>
</g>
</svg>
