<svg width="33" height="32" viewBox="0 0 33 32" fill="none" xmlns="http://www.w3.org/2000/svg">
<g id="Facebook" clip-path="url(#clip0_14_20)">
<path id="Vector" d="M32.5 16.098C32.5 7.20599 25.336 -0.00201416 16.5 -0.00201416C7.66 -1.41601e-05 0.496002 7.20599 0.496002 16.1C0.496002 24.134 6.348 30.794 13.996 32.002V20.752H9.936V16.1H14V12.55C14 8.51599 16.39 6.28799 20.044 6.28799C21.796 6.28799 23.626 6.60199 23.626 6.60199V10.562H21.608C19.622 10.562 19.002 11.804 19.002 13.078V16.098H23.438L22.73 20.75H19V32C26.648 30.792 32.5 24.132 32.5 16.098Z" fill="#999999"/>
</g>
<defs>
<clipPath id="clip0_14_20">
<rect width="32" height="32" fill="white" transform="translate(0.5)"/>
</clipPath>
</defs>
</svg>
