<svg width="32" height="32" viewBox="0 0 32 32" fill="none" xmlns="http://www.w3.org/2000/svg">
<g id="HandbagFill">
<path id="Vector" d="M16 2C14.9391 2 13.9217 2.42143 13.1715 3.17157C12.4214 3.92172 12 4.93913 12 6V10H9.99996V6C9.99996 4.4087 10.6321 2.88258 11.7573 1.75736C12.8825 0.632141 14.4087 0 16 0C17.5913 0 19.1174 0.632141 20.2426 1.75736C21.3678 2.88258 22 4.4087 22 6V10H20V6C20 4.93913 19.5785 3.92172 18.8284 3.17157C18.0782 2.42143 17.0608 2 16 2ZM9.99996 10H6.71996C6.00171 10.0002 5.30735 10.258 4.76308 10.7267C4.2188 11.1953 3.86074 11.8437 3.75396 12.554L1.69996 26.26C1.59354 26.9712 1.64176 27.6969 1.84134 28.3878C2.04092 29.0786 2.38717 29.7182 2.85645 30.2631C3.32574 30.8079 3.90702 31.2451 4.56065 31.5449C5.21428 31.8446 5.92488 31.9999 6.64396 32H25.354C26.0732 32.0002 26.784 31.8451 27.4379 31.5455C28.0918 31.2459 28.6733 30.8087 29.1428 30.2638C29.6123 29.719 29.9587 29.0792 30.1584 28.3882C30.3581 27.6973 30.4064 26.9713 30.3 26.26L28.244 12.554C28.1372 11.8441 27.7795 11.196 27.2356 10.7273C26.6917 10.2587 25.9979 10.0006 25.28 10H22V13C22 13.2652 21.8946 13.5196 21.7071 13.7071C21.5195 13.8946 21.2652 14 21 14C20.7347 14 20.4804 13.8946 20.2929 13.7071C20.1053 13.5196 20 13.2652 20 13V10H12V13C12 13.2652 11.8946 13.5196 11.7071 13.7071C11.5195 13.8946 11.2652 14 11 14C10.7347 14 10.4804 13.8946 10.2929 13.7071C10.1053 13.5196 9.99996 13.2652 9.99996 13V10Z" fill="#7E9549"/>
</g>
</svg>
