<svg width="20" height="20" viewBox="0 0 20 20" fill="none" xmlns="http://www.w3.org/2000/svg">
<g clip-path="url(#clip0_10_16)">
<path d="M10 1.60002C8.40875 1.60002 6.88263 2.23217 5.75741 3.35738C4.63219 4.4826 4.00005 6.00873 4.00005 7.60002V8.80002H5.20005C5.51831 8.80002 5.82353 8.92645 6.04858 9.1515C6.27362 9.37654 6.40005 9.68176 6.40005 10V13.6C6.40005 13.9183 6.27362 14.2235 6.04858 14.4486C5.82353 14.6736 5.51831 14.8 5.20005 14.8H4.00005C3.68179 14.8 3.37656 14.6736 3.15152 14.4486C2.92648 14.2235 2.80005 13.9183 2.80005 13.6V7.60002C2.80005 6.65451 2.98628 5.71825 3.34812 4.8447C3.70995 3.97116 4.2403 3.17744 4.90888 2.50886C5.57746 1.84027 6.37118 1.30993 7.24473 0.948092C8.11827 0.586258 9.05453 0.400024 10 0.400024C10.9456 0.400024 11.8818 0.586258 12.7554 0.948092C13.6289 1.30993 14.4226 1.84027 15.0912 2.50886C15.7598 3.17744 16.2901 3.97116 16.652 4.8447C17.0138 5.71825 17.2 6.65451 17.2 7.60002V14.8C17.2 15.5957 16.884 16.3587 16.3214 16.9213C15.7588 17.484 14.9957 17.8 14.2 17.8H11.6392C11.5339 17.9824 11.3824 18.1339 11.2 18.2392C11.0176 18.3446 10.8107 18.4 10.6 18.4H9.40005C9.08179 18.4 8.77656 18.2736 8.55152 18.0486C8.32648 17.8235 8.20005 17.5183 8.20005 17.2C8.20005 16.8818 8.32648 16.5765 8.55152 16.3515C8.77656 16.1265 9.08179 16 9.40005 16H10.6C10.8107 16 11.0176 16.0555 11.2 16.1608C11.3824 16.2661 11.5339 16.4176 11.6392 16.6H14.2C14.6774 16.6 15.1353 16.4104 15.4728 16.0728C15.8104 15.7353 16 15.2774 16 14.8H14.8C14.4818 14.8 14.1766 14.6736 13.9515 14.4486C13.7265 14.2235 13.6 13.9183 13.6 13.6V10C13.6 9.68176 13.7265 9.37654 13.9515 9.1515C14.1766 8.92645 14.4818 8.80002 14.8 8.80002H16V7.60002C16 6.81209 15.8449 6.03188 15.5433 5.30392C15.2418 4.57597 14.7998 3.91454 14.2427 3.35738C13.6855 2.80023 13.0241 2.35828 12.2961 2.05675C11.5682 1.75522 10.788 1.60002 10 1.60002Z" fill="black"/>
</g>
<defs>
<clipPath id="clip0_10_16">
<rect width="19.2" height="19.2" fill="white" transform="translate(0.400024 0.400024)"/>
</clipPath>
</defs>
</svg>
