<svg width="33" height="32" viewBox="0 0 33 32" fill="none" xmlns="http://www.w3.org/2000/svg">
<g id="Instagram" clip-path="url(#clip0_14_18)">
<path id="Vector" d="M16.5 0C12.158 0 11.612 0.02 9.906 0.096C8.2 0.176 7.038 0.444 6.02 0.84C4.95169 1.24065 3.98428 1.8708 3.186 2.686C2.3708 3.48428 1.74065 4.45169 1.34 5.52C0.944 6.536 0.674 7.7 0.596 9.4C0.52 11.11 0.5 11.654 0.5 16.002C0.5 20.346 0.52 20.89 0.596 22.596C0.676 24.3 0.944 25.462 1.34 26.48C1.75 27.532 2.296 28.424 3.186 29.314C4.074 30.204 4.966 30.752 6.018 31.16C7.038 31.556 8.198 31.826 9.902 31.904C11.61 31.98 12.154 32 16.5 32C20.846 32 21.388 31.98 23.096 31.904C24.798 31.824 25.964 31.556 26.982 31.16C28.0496 30.7591 29.0163 30.129 29.814 29.314C30.704 28.424 31.25 27.532 31.66 26.48C32.054 25.462 32.324 24.3 32.404 22.596C32.48 20.89 32.5 20.346 32.5 16C32.5 11.654 32.48 11.11 32.404 9.402C32.324 7.7 32.054 6.536 31.66 5.52C31.2593 4.45169 30.6292 3.48428 29.814 2.686C29.0157 1.8708 28.0483 1.24065 26.98 0.84C25.96 0.444 24.796 0.174 23.094 0.096C21.386 0.02 20.844 0 16.496 0H16.5ZM15.066 2.884H16.502C20.774 2.884 21.28 2.898 22.966 2.976C24.526 3.046 25.374 3.308 25.938 3.526C26.684 3.816 27.218 4.164 27.778 4.724C28.338 5.284 28.684 5.816 28.974 6.564C29.194 7.126 29.454 7.974 29.524 9.534C29.602 11.22 29.618 11.726 29.618 15.996C29.618 20.266 29.602 20.774 29.524 22.46C29.454 24.02 29.192 24.866 28.974 25.43C28.7157 26.1238 28.3065 26.7516 27.776 27.268C27.216 27.828 26.684 28.174 25.936 28.464C25.376 28.684 24.528 28.944 22.966 29.016C21.28 29.092 20.774 29.11 16.502 29.11C12.23 29.11 11.722 29.092 10.036 29.016C8.476 28.944 7.63 28.684 7.066 28.464C6.37167 28.2065 5.7432 27.798 5.226 27.268C4.69455 26.7512 4.28466 26.1227 4.026 25.428C3.808 24.866 3.546 24.018 3.476 22.458C3.4 20.772 3.384 20.266 3.384 15.992C3.384 11.718 3.4 11.216 3.476 9.53C3.548 7.97 3.808 7.122 4.028 6.558C4.318 5.812 4.666 5.278 5.226 4.718C5.786 4.158 6.318 3.812 7.066 3.522C7.63 3.302 8.476 3.042 10.036 2.97C11.512 2.902 12.084 2.882 15.066 2.88V2.884ZM25.042 5.54C24.7899 5.54 24.5402 5.58966 24.3072 5.68615C24.0743 5.78264 23.8626 5.92407 23.6844 6.10236C23.5061 6.28064 23.3646 6.4923 23.2682 6.72525C23.1717 6.95819 23.122 7.20786 23.122 7.46C23.122 7.71214 23.1717 7.96181 23.2682 8.19475C23.3646 8.4277 23.5061 8.63936 23.6844 8.81765C23.8626 8.99593 24.0743 9.13736 24.3072 9.23385C24.5402 9.33034 24.7899 9.38 25.042 9.38C25.5512 9.38 26.0396 9.17772 26.3996 8.81765C26.7597 8.45757 26.962 7.96922 26.962 7.46C26.962 6.95078 26.7597 6.46242 26.3996 6.10236C26.0396 5.74229 25.5512 5.54 25.042 5.54ZM16.502 7.784C15.4121 7.767 14.3298 7.96697 13.318 8.37228C12.3061 8.77759 11.385 9.38014 10.6083 10.1448C9.83157 10.9096 9.21473 11.8211 8.79368 12.8265C8.37264 13.8319 8.1558 14.911 8.1558 16.001C8.1558 17.091 8.37264 18.1701 8.79368 19.1755C9.21473 20.1809 9.83157 21.0924 10.6083 21.8572C11.385 22.6219 12.3061 23.2244 13.318 23.6297C14.3298 24.035 15.4121 24.235 16.502 24.218C18.6591 24.1843 20.7164 23.3038 22.23 21.7665C23.7435 20.2292 24.5918 18.1583 24.5918 16.001C24.5918 13.8437 23.7435 11.7728 22.23 10.2355C20.7164 8.69817 18.6591 7.81765 16.502 7.784ZM16.502 10.666C17.2025 10.666 17.8961 10.804 18.5432 11.072C19.1904 11.3401 19.7784 11.733 20.2737 12.2283C20.769 12.7236 21.1619 13.3116 21.43 13.9588C21.698 14.6059 21.836 15.2995 21.836 16C21.836 16.7005 21.698 17.3941 21.43 18.0412C21.1619 18.6884 20.769 19.2764 20.2737 19.7717C19.7784 20.267 19.1904 20.6599 18.5432 20.928C17.8961 21.196 17.2025 21.334 16.502 21.334C15.0873 21.334 13.7306 20.772 12.7303 19.7717C11.73 18.7714 11.168 17.4147 11.168 16C11.168 14.5853 11.73 13.2286 12.7303 12.2283C13.7306 11.228 15.0873 10.666 16.502 10.666Z" fill="#999999"/>
</g>
<defs>
<clipPath id="clip0_14_18">
<rect width="32" height="32" fill="white" transform="translate(0.5)"/>
</clipPath>
</defs>
</svg>
