<svg width="24" height="24" viewBox="0 0 24 24" fill="none" xmlns="http://www.w3.org/2000/svg">
<g clip-path="url(#clip0_352_1175)">
<path d="M11.9997 1.5C11.204 1.5 10.441 1.81607 9.87838 2.37868C9.31577 2.94129 8.9997 3.70435 8.9997 4.5V7.5H7.4997V4.5C7.4997 3.30653 7.9738 2.16193 8.81772 1.31802C9.66163 0.474106 10.8062 0 11.9997 0C13.1932 0 14.3378 0.474106 15.1817 1.31802C16.0256 2.16193 16.4997 3.30653 16.4997 4.5V7.5H14.9997V4.5C14.9997 3.70435 14.6836 2.94129 14.121 2.37868C13.5584 1.81607 12.7953 1.5 11.9997 1.5ZM7.4997 7.5H5.0397C4.50101 7.50012 3.98024 7.6935 3.57203 8.045C3.16383 8.39651 2.89528 8.8828 2.8152 9.4155L1.2747 19.695C1.19488 20.2284 1.23105 20.7727 1.38073 21.2908C1.53042 21.8089 1.7901 22.2887 2.14206 22.6973C2.49403 23.1059 2.92999 23.4338 3.42021 23.6587C3.91044 23.8835 4.44338 23.9999 4.9827 24H19.0152C19.5546 24.0001 20.0877 23.8838 20.5782 23.6591C21.0686 23.4344 21.5047 23.1065 21.8568 22.6979C22.209 22.2892 22.4688 21.8094 22.6186 21.2912C22.7683 20.7729 22.8045 20.2285 22.7247 19.695L21.1827 9.4155C21.1026 8.88305 20.8343 8.39696 20.4264 8.04549C20.0185 7.69402 19.4981 7.50048 18.9597 7.5H16.4997V9.75C16.4997 9.94891 16.4207 10.1397 16.28 10.2803C16.1394 10.421 15.9486 10.5 15.7497 10.5C15.5508 10.5 15.36 10.421 15.2194 10.2803C15.0787 10.1397 14.9997 9.94891 14.9997 9.75V7.5H8.9997V9.75C8.9997 9.94891 8.92068 10.1397 8.78003 10.2803C8.63937 10.421 8.44861 10.5 8.2497 10.5C8.05078 10.5 7.86002 10.421 7.71937 10.2803C7.57871 10.1397 7.4997 9.94891 7.4997 9.75V7.5Z" fill="#7E9549"/>
<rect x="8" width="16" height="16" rx="8" fill="#F40808"/>
<path d="M12.24 12L16.128 7.908C16.328 7.692 16.5 7.484 16.644 7.284C16.788 7.084 16.896 6.884 16.968 6.684C17.04 6.484 17.076 6.272 17.076 6.048C17.076 5.888 17.044 5.732 16.98 5.58C16.924 5.42 16.832 5.276 16.704 5.148C16.584 5.02 16.436 4.92 16.26 4.848C16.084 4.768 15.88 4.728 15.648 4.728C15.328 4.728 15.052 4.804 14.82 4.956C14.588 5.1 14.408 5.312 14.28 5.592C14.16 5.872 14.1 6.196 14.1 6.564H12.696C12.696 5.964 12.808 5.432 13.032 4.968C13.264 4.496 13.6 4.128 14.04 3.864C14.488 3.592 15.032 3.456 15.672 3.456C16.16 3.456 16.584 3.536 16.944 3.696C17.304 3.848 17.6 4.048 17.832 4.296C18.072 4.544 18.248 4.816 18.36 5.112C18.48 5.408 18.54 5.696 18.54 5.976C18.54 6.416 18.432 6.84 18.216 7.248C18.008 7.656 17.732 8.02 17.388 8.34L15 10.68H18.648V12H12.24Z" fill="white"/>
</g>
<defs>
<clipPath id="clip0_352_1175">
<rect width="24" height="24" fill="white"/>
</clipPath>
</defs>
</svg>
