<svg width="33" height="32" viewBox="0 0 33 32" fill="none" xmlns="http://www.w3.org/2000/svg">
<g id="Twitter" clip-path="url(#clip0_14_22)">
<path id="Vector" d="M10.552 30C22.628 30 29.234 19.994 29.234 11.332C29.2367 11.0506 29.2327 10.7693 29.222 10.488C30.5077 9.55647 31.6176 8.40388 32.5 7.08398C31.2982 7.61253 30.0253 7.96159 28.722 8.11998C30.0952 7.2994 31.1236 6.00801 31.616 4.48598C30.3265 5.25142 28.9144 5.788 27.442 6.07198C26.4524 5.01803 25.1428 4.31982 23.7162 4.0855C22.2895 3.85118 20.8254 4.09383 19.5507 4.77586C18.2759 5.45789 17.2616 6.54124 16.6649 7.8581C16.0682 9.17497 15.9224 10.6518 16.25 12.06C13.6394 11.9297 11.0853 11.2518 8.75366 10.0703C6.42202 8.88882 4.36495 7.23014 2.716 5.20198C1.87916 6.64827 1.6239 8.35875 2.00201 9.98635C2.38013 11.6139 3.36329 13.0367 4.752 13.966C3.71082 13.9323 2.69239 13.6527 1.78 13.15V13.24C1.78255 14.7547 2.30764 16.2222 3.26665 17.3948C4.22565 18.5673 5.55984 19.373 7.044 19.676C6.48054 19.8313 5.89846 19.9087 5.314 19.906C4.90184 19.9103 4.49033 19.8721 4.086 19.792C4.50479 21.0966 5.32155 22.2373 6.42167 23.054C7.52179 23.8708 8.85004 24.3226 10.22 24.346C7.89221 26.1719 5.01849 27.1629 2.06 27.16C1.5386 27.1639 1.01749 27.1338 0.5 27.07C3.50284 28.9849 6.99053 30.0015 10.552 30Z" fill="#999999"/>
</g>
<defs>
<clipPath id="clip0_14_22">
<rect width="32" height="32" fill="white" transform="translate(0.5)"/>
</clipPath>
</defs>
</svg>
